<svg width="13" height="12" viewBox="0 0 13 12" fill="none" xmlns="http://www.w3.org/2000/svg">
<path fill-rule="evenodd" clip-rule="evenodd" d="M5.52105 2.44118C5.37475 3.17955 4.73757 3.73529 3.97368 3.73529C3.2098 3.73529 2.57262 3.17955 2.42632 2.44118H0.815789C0.641383 2.44118 0.5 2.29633 0.5 2.11765C0.5 1.93897 0.641384 1.79412 0.815789 1.79412H2.42632C2.57262 1.05575 3.2098 0.5 3.97368 0.5C4.73757 0.5 5.37475 1.05575 5.52105 1.79412H12.1842C12.3586 1.79412 12.5 1.93897 12.5 2.11765C12.5 2.29633 12.3586 2.44118 12.1842 2.44118H5.52105ZM4.92105 2.11765C4.92105 2.65369 4.4969 3.08824 3.97368 3.08824C3.45047 3.08824 3.02632 2.65369 3.02632 2.11765C3.02632 1.58161 3.45047 1.14706 3.97368 1.14706C4.4969 1.14706 4.92105 1.58161 4.92105 2.11765Z" fill="white"/>
<path fill-rule="evenodd" clip-rule="evenodd" d="M10.5737 6.32353C10.4274 7.0619 9.7902 7.61765 9.02632 7.61765C8.26243 7.61765 7.62525 7.0619 7.47895 6.32353H0.815789C0.641383 6.32353 0.5 6.17868 0.5 6C0.5 5.82132 0.641384 5.67647 0.815789 5.67647H7.47895C7.62525 4.9381 8.26243 4.38235 9.02632 4.38235C9.7902 4.38235 10.4274 4.9381 10.5737 5.67647H12.1842C12.3586 5.67647 12.5 5.82132 12.5 6C12.5 6.17868 12.3586 6.32353 12.1842 6.32353H10.5737ZM9.97368 6C9.97368 6.53604 9.54953 6.97059 9.02632 6.97059C8.5031 6.97059 8.07895 6.53604 8.07895 6C8.07895 5.46396 8.5031 5.02941 9.02632 5.02941C9.54953 5.02941 9.97368 5.46396 9.97368 6Z" fill="white"/>
<path fill-rule="evenodd" clip-rule="evenodd" d="M3.97368 11.5C4.73757 11.5 5.37475 10.9443 5.52105 10.2059H12.1842C12.3586 10.2059 12.5 10.061 12.5 9.88235C12.5 9.70367 12.3586 9.55882 12.1842 9.55882H5.52105C5.37475 8.82045 4.73757 8.26471 3.97368 8.26471C3.2098 8.26471 2.57262 8.82045 2.42632 9.55882H0.815789C0.641384 9.55882 0.5 9.70367 0.5 9.88235C0.5 10.061 0.641383 10.2059 0.815789 10.2059H2.42632C2.57262 10.9443 3.2098 11.5 3.97368 11.5ZM3.97368 10.8529C4.4969 10.8529 4.92105 10.4184 4.92105 9.88235C4.92105 9.34631 4.4969 8.91177 3.97368 8.91177C3.45047 8.91177 3.02632 9.34631 3.02632 9.88235C3.02632 10.4184 3.45047 10.8529 3.97368 10.8529Z" fill="white"/>
</svg>
